<?xml version="1.0" standalone="no"?>
<!DOCTYPE svg PUBLIC "-//W3C//DTD SVG 20010904//EN"
 "http://www.w3.org/TR/2001/REC-SVG-20010904/DTD/svg10.dtd">
<svg version="1.0" xmlns="http://www.w3.org/2000/svg"
 width="400.000000pt" height="400.000000pt" viewBox="0 0 400.000000 400.000000"
 preserveAspectRatio="xMidYMid meet">

<g transform="translate(0.000000,400.000000) scale(0.100000,-0.100000)"
fill="#000000" stroke="none">
<path d="M729 2541 c-48 -15 -69 -32 -89 -71 -19 -37 -20 -59 -20 -345 l0
-305 129 0 c94 0 131 4 139 13 7 7 13 66 14 133 l3 119 137 3 c159 3 150 -4
145 112 l-2 65 -142 3 -143 3 0 44 0 45 199 0 c247 0 243 -1 239 110 l-3 75
-290 2 c-159 1 -302 -2 -316 -6z"/>
<path d="M1479 2534 c-68 -28 -69 -34 -69 -393 l0 -321 109 0 c90 0 110 3 115
16 3 9 6 110 6 225 0 120 4 209 9 209 5 0 41 -96 81 -214 39 -118 77 -220 85
-226 8 -7 50 -10 111 -8 l99 3 70 208 c39 114 76 215 82 225 9 13 12 -31 12
-198 1 -154 4 -219 13 -228 8 -8 49 -12 120 -12 l108 0 0 310 c0 338 -3 362
-56 396 -33 22 -189 32 -250 15 -47 -12 -66 -36 -90 -108 -45 -136 -107 -309
-114 -316 -8 -9 -12 3 -86 215 -56 164 -68 186 -109 204 -46 19 -198 18 -246
-2z"/>
<path d="M2583 2530 c-53 -32 -55 -42 -51 -273 3 -198 5 -216 27 -264 63 -140
206 -202 445 -190 180 8 285 64 337 179 23 51 24 64 27 311 l3 257 -86 0 c-92
0 -137 -13 -170 -50 -18 -20 -20 -40 -25 -219 -4 -174 -7 -200 -25 -231 -34
-57 -129 -74 -192 -34 -52 33 -58 62 -61 307 l-4 227 -96 0 c-78 0 -103 -4
-129 -20z"/>
<path d="M2900 1705 c-10 -12 -10 -15 3 -15 8 0 20 7 27 15 10 12 10 15 -3 15
-8 0 -20 -7 -27 -15z"/>
<path d="M630 1641 c-5 -11 -10 -53 -10 -94 0 -59 4 -77 18 -90 26 -24 68 -21
86 5 20 28 20 48 1 48 -8 0 -15 -6 -15 -14 0 -7 -7 -19 -15 -26 -28 -23 -45 5
-45 75 0 35 3 70 6 79 9 23 41 20 49 -4 7 -21 35 -28 35 -9 0 31 -22 49 -60
49 -29 0 -42 -5 -50 -19z"/>
<path d="M770 1556 c0 -92 2 -105 18 -108 26 -5 82 3 82 12 0 5 -15 10 -32 12
-29 3 -33 7 -36 36 -3 31 -2 32 33 32 46 0 43 24 -4 28 -30 3 -32 6 -29 35 3
28 7 32 36 35 51 5 37 22 -18 22 l-50 0 0 -104z"/>
<path d="M910 1555 c0 -91 2 -105 16 -105 15 0 16 10 11 80 -3 44 -1 78 3 75
5 -3 18 -39 31 -80 19 -66 25 -75 45 -75 24 0 24 1 24 106 0 80 -3 105 -12
101 -8 -2 -14 -26 -15 -63 0 -32 -2 -68 -3 -79 0 -11 -13 17 -27 63 -23 72
-29 82 -50 82 -23 0 -23 -2 -23 -105z"/>
<path d="M1070 1651 c0 -5 10 -11 23 -13 21 -3 22 -8 25 -95 2 -73 6 -93 17
-93 11 0 15 20 17 93 3 87 4 92 26 95 48 7 19 22 -43 22 -36 0 -65 -4 -65 -9z"/>
<path d="M1220 1555 c0 -87 3 -105 15 -105 11 0 15 12 15 45 0 41 2 45 24 45
24 0 36 -21 36 -66 0 -12 7 -25 16 -28 15 -6 16 0 10 46 -8 64 -8 65 0 104 8
43 -15 64 -72 64 l-44 0 0 -105z m83 64 c15 -24 1 -49 -28 -49 -21 0 -25 5
-25 28 0 16 3 32 7 36 11 10 35 3 46 -15z"/>
<path d="M1390 1641 c-17 -33 -13 -167 6 -186 25 -25 85 -16 101 15 18 36 17
141 -3 168 -20 30 -88 31 -104 3z m80 -20 c15 -29 12 -124 -4 -147 -12 -15
-18 -17 -33 -8 -14 9 -19 26 -21 84 -2 52 1 76 10 81 21 14 37 10 48 -10z"/>
<path d="M1622 1565 c5 -106 15 -125 64 -125 51 0 64 27 64 132 0 72 -3 88
-15 88 -12 0 -15 -15 -15 -79 0 -96 -5 -111 -36 -111 -27 0 -26 -1 -24 118 1
68 0 72 -21 72 -21 0 -21 -3 -17 -95z"/>
<path d="M1790 1556 c0 -86 3 -106 15 -106 11 0 15 19 17 88 l3 87 28 -87 c25
-79 30 -88 52 -88 25 0 25 0 25 105 0 87 -3 105 -15 105 -12 0 -15 -16 -16
-82 l-1 -83 -27 80 c-24 71 -31 80 -54 83 l-27 3 0 -105z"/>
<path d="M1970 1555 c0 -93 2 -106 16 -103 14 2 17 19 18 103 1 87 -1 100 -16
103 -16 3 -18 -7 -18 -103z"/>
<path d="M2033 1638 c3 -13 14 -60 24 -105 15 -72 21 -83 39 -83 19 0 24 12
43 88 12 48 24 95 27 105 3 11 0 17 -9 17 -18 0 -20 -6 -37 -92 -8 -38 -16
-68 -20 -68 -3 0 -14 36 -24 80 -13 57 -22 80 -33 80 -11 0 -14 -7 -10 -22z"/>
<path d="M2190 1556 c0 -115 0 -115 68 -108 43 5 41 22 -3 22 -33 0 -35 2 -35
35 0 33 2 35 36 35 45 0 41 24 -5 28 -30 3 -32 6 -29 35 3 28 7 32 32 32 16 1
31 6 34 13 2 8 -12 12 -47 12 l-51 0 0 -104z"/>
<path d="M2330 1555 c0 -87 3 -105 15 -105 11 0 15 12 15 46 0 41 2 45 23 42
17 -2 23 -11 27 -43 3 -25 11 -41 20 -43 13 -2 15 6 12 40 -2 24 -8 47 -12 51
-4 5 -2 20 5 34 25 47 -2 83 -61 83 l-44 0 0 -105z m80 64 c14 -24 -2 -49 -31
-49 -15 0 -19 7 -19 35 0 28 4 35 20 35 10 0 24 -9 30 -21z"/>
<path d="M2492 1648 c-30 -30 -1 -97 49 -113 25 -8 34 -44 17 -61 -19 -19 -47
-8 -54 22 -9 34 -24 30 -24 -6 0 -49 69 -69 104 -31 29 32 17 71 -31 104 -46
30 -52 47 -27 68 14 11 19 10 34 -9 32 -39 53 -26 24 16 -17 25 -71 31 -92 10z"/>
<path d="M2640 1555 c0 -87 3 -105 15 -105 12 0 15 18 15 105 0 87 -3 105 -15
105 -12 0 -15 -18 -15 -105z"/>
<path d="M2690 1650 c0 -5 11 -10 25 -10 25 0 25 0 25 -95 0 -74 3 -95 14 -95
19 0 26 32 26 118 0 70 1 72 25 72 14 0 25 5 25 10 0 6 -30 10 -70 10 -40 0
-70 -4 -70 -10z"/>
<path d="M2861 1568 c-13 -51 -26 -99 -29 -105 -2 -7 3 -13 11 -13 9 0 19 9
22 20 5 15 15 20 40 20 25 0 35 -5 40 -20 8 -25 39 -28 32 -2 -2 9 -15 56 -28
105 -20 74 -26 87 -44 87 -17 0 -24 -13 -44 -92z m63 -15 c7 -31 6 -33 -18
-33 -29 0 -31 8 -15 65 12 43 18 38 33 -32z"/>
<path d="M3010 1555 c0 -87 3 -105 15 -105 11 0 15 12 15 46 0 41 2 45 22 42
14 -2 24 -11 26 -23 7 -50 13 -65 26 -65 11 0 13 10 9 43 -3 23 -9 46 -13 50
-4 5 -1 21 8 37 15 25 15 30 -1 54 -15 22 -25 26 -62 26 l-45 0 0 -105z m76
71 c15 -12 17 -18 8 -33 -6 -10 -21 -19 -33 -21 -18 -3 -21 1 -21 32 0 39 13
46 46 22z"/>
<path d="M3170 1555 c0 -87 3 -105 15 -105 12 0 15 18 15 105 0 87 -3 105 -15
105 -12 0 -15 -18 -15 -105z"/>
<path d="M3256 1638 c-22 -31 -22 -160 0 -182 20 -21 78 -21 98 0 19 18 23
153 6 185 -16 28 -84 27 -104 -3z m73 -12 c19 -22 10 -146 -11 -159 -12 -8
-21 -7 -32 2 -20 16 -23 140 -4 159 16 16 33 15 47 -2z"/>
</g>
</svg>
