<?xml version="1.0" standalone="no"?>
<!DOCTYPE svg PUBLIC "-//W3C//DTD SVG 20010904//EN"
 "http://www.w3.org/TR/2001/REC-SVG-20010904/DTD/svg10.dtd">
<svg version="1.0" xmlns="http://www.w3.org/2000/svg"
 width="224.000000pt" height="224.000000pt" viewBox="0 0 224.000000 224.000000"
 preserveAspectRatio="xMidYMid meet">

<g transform="translate(0.000000,224.000000) scale(0.100000,-0.100000)"
fill="#000000" stroke="none">
<path d="M230 1665 l0 -396 88 3 c48 2 86 6 85 11 -2 4 -3 180 -3 392 l0 385
-85 0 -85 0 0 -395z"/>
<path d="M480 1665 l0 -395 85 0 85 0 0 300 c0 193 4 300 10 300 6 0 10 -6 10
-13 0 -7 27 -96 59 -197 33 -102 73 -231 91 -287 l31 -103 83 0 83 0 93 300
c52 165 97 300 102 300 4 0 8 -135 8 -300 l0 -300 85 0 85 0 0 395 0 395 -158
0 -158 0 -53 -197 c-78 -292 -82 -306 -90 -296 -5 4 -39 117 -77 251 l-69 242
-152 0 -153 0 0 -395z"/>
<path d="M1460 1670 l0 -390 241 0 c274 0 305 5 360 62 56 57 64 102 64 333 0
182 -2 204 -22 245 -21 45 -73 103 -73 82 0 -7 -9 -12 -20 -12 -13 0 -20 7
-20 19 0 25 -8 30 -64 37 l-46 7 0 -32 c0 -31 0 -31 55 -31 l55 0 0 -60 0 -60
-55 0 -55 0 0 -80 0 -80 -75 0 -75 0 0 -30 c0 -28 -3 -30 -35 -30 -32 0 -35 2
-35 30 0 27 3 30 30 30 l30 0 0 80 0 80 75 0 75 0 0 59 c0 57 -1 60 -27 63
-23 2 -27 8 -28 33 l0 30 -177 3 -178 2 0 -390z m640 140 l0 -60 -55 0 -55 0
0 60 0 60 55 0 55 0 0 -60z"/>
<path d="M230 1065 l0 -65 365 0 365 0 0 65 0 65 -365 0 -365 0 0 -65z m120 5
c0 -22 -4 -40 -10 -40 -5 0 -10 18 -10 40 0 22 5 40 10 40 6 0 10 -18 10 -40z
m42 18 l12 -23 7 25 c6 20 7 17 8 -17 1 -47 -10 -55 -27 -20 l-11 22 0 -22
c-2 -41 -21 -24 -21 17 0 45 13 52 32 18z m88 12 c0 -5 -5 -10 -11 -10 -6 0
-3 -7 6 -16 9 -9 14 -21 12 -28 -5 -14 -47 -21 -47 -7 0 6 8 11 18 11 16 1 16
2 -2 15 -11 8 -16 21 -13 30 7 17 37 21 37 5z m70 0 c0 -5 -4 -10 -10 -10 -5
0 -10 -13 -10 -30 0 -16 -4 -30 -10 -30 -5 0 -10 13 -10 28 0 15 -5 33 -12 40
-9 9 -5 12 20 12 18 0 32 -4 32 -10z m30 -30 c0 -22 -4 -40 -10 -40 -5 0 -10
18 -10 40 0 22 5 40 10 40 6 0 10 -18 10 -40z m62 28 c-7 -7 -12 -25 -12 -40
0 -15 -4 -28 -10 -28 -5 0 -10 14 -10 30 0 17 -4 30 -10 30 -5 0 -10 5 -10 10
0 6 14 10 32 10 25 0 29 -3 20 -12z m46 -46 c8 -2 12 7 12 27 0 17 5 31 10 31
12 0 13 -50 1 -68 -5 -8 -17 -12 -27 -10 -14 2 -19 13 -21 43 -1 34 0 36 5 11
4 -16 13 -31 20 -34z m90 45 c-9 -7 -18 -26 -21 -42 l-4 -30 -2 33 c0 17 -5
32 -11 32 -5 0 -10 5 -10 10 0 6 15 10 33 10 28 -1 30 -2 15 -13z m70 1 c28
-28 1 -75 -38 -63 -33 11 -21 75 15 75 6 0 16 -5 23 -12z"/>
<path d="M812 1068 c2 -13 8 -23 13 -23 6 0 11 10 13 23 2 15 -2 22 -13 22
-11 0 -15 -7 -13 -22z"/>
<path d="M1144 955 c-26 -18 -15 -26 15 -11 13 7 19 16 14 19 -6 4 -19 0 -29
-8z"/>
<path d="M250 801 c0 -94 2 -111 16 -111 13 0 15 13 12 90 -2 50 0 90 3 90 3
0 20 -39 36 -87 40 -119 55 -119 97 2 l31 90 3 -92 c2 -74 6 -93 17 -93 12 0
15 20 15 110 l0 110 -29 0 c-23 0 -30 -6 -35 -25 -13 -53 -48 -136 -54 -130
-4 4 -18 39 -32 78 -22 64 -28 72 -52 75 l-28 3 0 -110z"/>
<path d="M528 800 l-3 -111 69 3 c44 2 71 8 74 16 3 9 -12 12 -52 12 l-56 0 0
35 0 35 50 0 c38 0 50 4 50 15 0 11 -12 15 -50 15 -49 0 -50 1 -50 30 0 29 1
30 50 30 38 0 50 4 50 15 0 12 -14 15 -64 15 l-65 0 -3 -110z"/>
<path d="M686 895 c-4 -12 3 -15 29 -15 l35 0 0 -95 c0 -78 3 -95 15 -95 12 0
15 17 15 95 l0 95 30 0 c20 0 30 5 30 15 0 12 -15 15 -74 15 -56 0 -75 -4 -80
-15z"/>
<path d="M870 800 c0 -91 3 -110 15 -110 10 0 15 11 15 35 0 35 0 35 44 35 45
0 56 -10 56 -51 0 -10 7 -19 15 -19 21 0 20 63 -1 81 -14 11 -14 13 0 21 11 6
16 24 16 53 0 55 -16 65 -99 65 l-61 0 0 -110z m126 55 c11 -42 -1 -55 -51
-55 l-45 0 0 40 0 40 45 0 c39 0 45 -3 51 -25z"/>
<path d="M1084 896 c-16 -12 -19 -27 -19 -96 0 -96 11 -110 85 -110 74 0 85
14 85 110 0 69 -3 84 -19 96 -25 18 -107 18 -132 0z m111 -96 l0 -75 -45 0
-45 0 -3 69 c-3 78 3 88 58 84 l35 -3 0 -75z"/>
<path d="M1270 800 c0 -91 3 -110 15 -110 10 0 15 10 15 34 l0 34 56 4 c64 5
74 15 74 75 0 59 -18 73 -96 73 l-64 0 0 -110z m126 53 c10 -39 -7 -58 -52
-58 -35 0 -39 3 -42 28 -6 46 4 57 47 57 36 0 41 -3 47 -27z"/>
<path d="M1482 894 c-20 -13 -22 -24 -22 -93 0 -96 12 -111 87 -111 71 0 83
17 83 112 0 60 -4 78 -18 91 -24 22 -100 22 -130 1z m106 -26 c7 -7 12 -37 12
-68 0 -64 -11 -80 -55 -80 -17 0 -36 5 -43 12 -15 15 -16 102 -2 129 12 22 68
27 88 7z"/>
<path d="M1670 800 l0 -110 65 0 c51 0 65 3 65 15 0 11 -12 15 -50 15 l-50 0
0 95 c0 78 -3 95 -15 95 -12 0 -15 -19 -15 -110z"/>
<path d="M1830 800 l0 -110 65 0 c51 0 65 3 65 15 0 11 -12 15 -50 15 l-50 0
0 35 0 35 50 0 c38 0 50 4 50 15 0 11 -12 15 -50 15 -49 0 -50 1 -50 30 0 29
1 30 50 30 38 0 50 4 50 15 0 12 -14 15 -65 15 l-65 0 0 -110z"/>
<path d="M550 624 c-30 -12 -40 -38 -40 -107 0 -99 7 -107 86 -107 60 0 65 2
74 26 6 14 10 36 10 50 0 22 -3 24 -47 22 -44 -1 -45 -2 -10 -5 33 -4 37 -7
37 -32 0 -38 -17 -51 -65 -51 -23 0 -46 5 -53 12 -7 7 -12 42 -12 89 0 87 2
89 77 89 36 0 46 -4 50 -20 3 -11 9 -20 14 -20 13 0 11 13 -4 34 -14 19 -88
31 -117 20z"/>
<path d="M243 515 l0 -105 66 0 c36 0 73 5 81 10 10 6 16 32 18 88 5 102 -4
112 -97 112 l-68 0 0 -105z m138 78 c9 -10 14 -40 14 -81 0 -77 -15 -92 -87
-92 l-48 0 0 95 0 95 54 0 c38 0 58 -5 67 -17z"/>
<path d="M450 515 c0 -63 4 -105 10 -105 6 0 10 42 10 105 0 63 -4 105 -10
105 -6 0 -10 -42 -10 -105z"/>
<path d="M710 515 c0 -63 4 -105 10 -105 6 0 10 42 10 105 0 63 -4 105 -10
105 -6 0 -10 -42 -10 -105z"/>
<path d="M793 613 l37 -4 0 -100 c0 -59 4 -99 10 -99 6 0 10 40 10 99 l0 100
33 4 c17 2 -4 4 -48 4 -44 0 -63 -2 -42 -4z"/>
<path d="M950 528 c-17 -51 -34 -99 -37 -105 -2 -7 0 -13 5 -13 5 0 12 9 15
20 4 17 14 20 65 20 51 0 60 -3 65 -20 3 -11 10 -20 15 -20 8 0 -47 174 -64
202 -16 25 -35 0 -64 -84z m77 7 l21 -65 -50 0 c-36 0 -49 4 -46 13 3 6 13 36
22 65 10 28 21 52 25 52 4 0 16 -29 28 -65z"/>
<path d="M1120 515 l0 -105 63 2 62 2 -52 3 -53 4 0 100 c0 59 -4 99 -10 99
-6 0 -10 -42 -10 -105z"/>
</g>
</svg>
