<?xml version="1.0" standalone="no"?>
<!DOCTYPE svg PUBLIC "-//W3C//DTD SVG 20010904//EN"
 "http://www.w3.org/TR/2001/REC-SVG-20010904/DTD/svg10.dtd">
<svg version="1.0" xmlns="http://www.w3.org/2000/svg"
 width="313.000000pt" height="423.000000pt" viewBox="0 0 313.000000 423.000000"
 preserveAspectRatio="xMidYMid meet">

<g transform="translate(0.000000,423.000000) scale(0.100000,-0.100000)"
fill="#000000" stroke="none">
<path d="M1040 2705 l0 -25 229 0 c141 0 231 -4 233 -10 2 -5 1 -39 0 -75 l-4
-65 -153 0 c-85 0 -156 -3 -158 -7 -3 -5 -7 -39 -8 -78 l-4 -70 128 -3 127 -3
0 -43 c0 -24 -3 -58 -6 -75 l-6 -31 -124 0 c-67 0 -125 -4 -128 -8 -3 -5 -8
-47 -11 -93 -3 -46 -8 -103 -11 -126 l-5 -43 -73 0 -73 0 -7 -61 c-3 -34 -6
-79 -6 -100 l0 -39 230 0 230 0 0 25 c0 19 5 25 23 26 l22 0 -22 9 c-13 5 -23
17 -22 27 0 16 1 16 9 -2 7 -16 9 -17 9 -3 1 9 -2 19 -7 22 -4 2 -6 25 -4 50
l4 46 73 0 c86 0 80 -10 91 158 l7 112 88 0 c78 0 90 -2 99 -20 6 -11 9 -20 7
-20 -3 0 10 -48 28 -107 l33 -108 76 -3 c42 -2 76 -1 76 2 0 3 -11 42 -26 88
-14 46 -30 101 -36 123 -6 22 -18 47 -25 56 -13 15 -9 20 26 45 44 32 91 97
91 127 0 10 5 15 10 12 6 -4 8 -25 5 -49 -5 -45 -25 -346 -25 -383 0 -22 4
-23 70 -23 39 0 70 1 70 3 1 1 3 45 6 97 3 52 9 136 15 187 5 51 9 113 9 138
0 25 4 45 8 45 5 0 36 -48 69 -107 34 -60 93 -165 133 -235 79 -142 80 -142
190 -136 l55 3 7 80 c4 44 12 157 18 250 6 94 14 208 18 255 4 47 6 98 4 113
-3 28 -4 28 -70 25 l-67 -3 -7 -80 c-3 -44 -9 -132 -13 -195 -8 -154 -15 -204
-25 -194 -8 8 -55 91 -219 389 -49 88 -44 85 -137 85 -96 0 -89 9 -100 -130
-7 -89 -8 -92 -16 -50 -11 63 -53 119 -113 149 -48 25 -58 26 -252 29 l-203 3
0 25 0 24 -230 0 -230 0 0 -25z m829 -176 c18 -7 41 -25 51 -42 17 -27 17 -33
5 -57 -26 -51 -53 -60 -180 -60 l-115 0 6 73 c3 39 7 78 10 85 5 16 178 17
223 1z m-836 -646 c-27 -5 -31 -30 -5 -36 13 -4 11 -5 -5 -6 -16 -1 -23 -8
-24 -23 -2 -21 -2 -22 -6 -2 -7 35 14 74 39 73 l23 -2 -22 -4z m60 -3 c-27
-11 -30 -30 -5 -31 13 0 14 -2 2 -6 -27 -10 -30 -28 -7 -35 20 -5 19 -6 -6 -7
-27 -1 -28 0 -21 37 9 49 11 52 37 51 l22 0 -22 -9z m80 -12 c17 -26 -7 -68
-38 -68 -26 0 -27 4 -8 73 6 22 32 19 46 -5z m62 15 c-31 -8 -38 -27 -12 -35
l22 -6 -22 -1 c-13 -1 -23 -7 -23 -15 0 -8 10 -17 23 -19 16 -3 14 -5 -10 -6
-25 -1 -30 3 -28 17 15 72 15 72 43 71 21 -1 22 -2 7 -6z m73 -5 c7 -7 8 -17
2 -28 -5 -9 -5 -21 -1 -28 5 -8 13 0 24 23 22 47 37 44 36 -7 -1 -24 -3 -35
-6 -25 -2 9 -9 17 -15 17 -6 0 -17 -8 -24 -17 -13 -17 -15 -17 -25 0 -5 9 -16
17 -24 17 -7 0 -16 -8 -18 -17 -4 -14 -5 -13 -6 4 -3 54 29 89 57 61z m94 -32
c-3 -27 0 -35 15 -39 12 -3 8 -5 -11 -6 -25 -1 -28 2 -22 22 3 12 6 30 6 40 0
9 4 17 8 17 4 0 6 -15 4 -34z"/>
<path d="M1137 1874 c-10 -10 -9 -64 2 -64 15 0 33 28 29 46 -3 19 -20 28 -31
18z"/>
<path d="M1270 1859 c0 -24 23 -21 28 4 2 10 -3 17 -12 17 -10 0 -16 -9 -16
-21z"/>
<path d="M1345 1850 c-3 -5 -1 -10 4 -10 6 0 11 5 11 10 0 6 -2 10 -4 10 -3 0
-8 -4 -11 -10z"/>
<path d="M416 2623 c-10 -86 -29 -379 -29 -450 0 -43 7 -75 23 -107 44 -91 94
-109 289 -104 117 3 142 7 178 26 78 41 118 124 122 252 1 36 6 110 11 165 5
55 10 138 12 185 l3 85 -70 0 -70 0 -7 -100 c-21 -316 -29 -406 -39 -429 -15
-33 -61 -46 -159 -45 -153 2 -155 6 -140 242 5 94 13 209 17 255 l6 82 -70 0
-70 0 -7 -57z"/>
<path d="M370 1864 c0 -8 5 -12 10 -9 6 4 8 11 5 16 -9 14 -15 11 -15 -7z"/>
<path d="M538 1873 c6 -2 18 -2 25 0 6 3 1 5 -13 5 -14 0 -19 -2 -12 -5z"/>
<path d="M590 1873 c0 -5 11 -8 24 -8 13 0 22 3 19 8 -2 4 -13 7 -24 7 -10 0
-19 -3 -19 -7z"/>
<path d="M670 1876 c0 -2 7 -7 16 -10 8 -3 12 -2 9 4 -6 10 -25 14 -25 6z"/>
<path d="M748 1873 c7 -3 16 -2 19 1 4 3 -2 6 -13 5 -11 0 -14 -3 -6 -6z"/>
<path d="M816 1863 c-6 -14 -5 -15 5 -6 7 7 10 15 7 18 -3 3 -9 -2 -12 -12z"/>
<path d="M878 1873 c7 -3 16 -2 19 1 4 3 -2 6 -13 5 -11 0 -14 -3 -6 -6z"/>
<path d="M930 1871 c0 -5 9 -7 20 -4 11 3 20 7 20 9 0 2 -9 4 -20 4 -11 0 -20
-4 -20 -9z"/>
<path d="M1468 1873 c7 -3 16 -2 19 1 4 3 -2 6 -13 5 -11 0 -14 -3 -6 -6z"/>
<path d="M1558 1862 c9 -10 19 -14 21 -9 2 5 -3 13 -10 18 -24 15 -30 10 -11
-9z"/>
<path d="M1620 1866 c0 -8 -3 -22 -7 -32 -4 -12 -3 -15 5 -10 7 4 12 16 12 27
0 11 7 19 16 19 11 0 14 -6 9 -22 -5 -20 -4 -21 5 -5 6 9 8 22 5 27 -9 15 -45
12 -45 -4z"/>
<path d="M1748 1862 c19 -21 27 -20 19 3 -4 8 -13 15 -22 15 -13 0 -12 -3 3
-18z"/>
<path d="M1830 1876 c0 -2 7 -7 16 -10 8 -3 12 -2 9 4 -6 10 -25 14 -25 6z"/>
<path d="M1881 1853 c2 -24 2 -25 6 -5 2 12 11 22 19 22 11 0 14 -6 9 -22 -5
-20 -4 -21 5 -5 14 21 5 37 -21 37 -14 0 -19 -6 -18 -27z"/>
<path d="M1957 1865 c-4 -9 -3 -13 3 -10 6 3 10 -1 10 -10 0 -11 -5 -15 -14
-12 -14 6 -32 -21 -21 -31 3 -3 5 0 5 6 0 16 27 15 33 0 3 -7 6 1 6 17 1 38
-13 64 -22 40z"/>
<path d="M2006 1854 c-4 -15 -5 -29 -1 -32 3 -3 5 2 5 12 0 9 4 15 9 12 5 -4
7 3 4 14 -7 26 -10 25 -17 -6z"/>
<path d="M2070 1863 c0 -15 2 -15 9 -4 5 8 16 11 26 8 9 -4 14 -3 10 3 -11 17
-45 11 -45 -7z"/>
<path d="M2148 1873 c6 -2 18 -2 25 0 6 3 1 5 -13 5 -14 0 -19 -2 -12 -5z"/>
<path d="M2220 1872 c0 -6 9 -8 19 -5 13 3 21 -1 25 -14 4 -15 5 -15 3 2 -2
20 -47 36 -47 17z"/>
<path d="M2328 1862 c9 -10 19 -17 21 -16 6 5 -20 34 -30 34 -5 0 -1 -8 9 -18z"/>
<path d="M2380 1871 c0 -5 5 -13 10 -16 6 -3 10 -2 10 4 0 5 -4 13 -10 16 -5
3 -10 2 -10 -4z"/>
<path d="M2463 1873 c-7 -2 -13 -10 -13 -16 0 -8 4 -7 12 1 17 17 36 15 42 -5
4 -14 4 -14 3 2 -2 20 -21 28 -44 18z"/>
<path d="M2524 1865 c-3 -8 -4 -20 -1 -27 3 -7 6 -3 6 9 1 14 9 23 24 26 l22
4 -23 2 c-12 0 -25 -6 -28 -14z"/>
<path d="M2586 1872 c6 -4 14 -14 17 -22 4 -12 6 -12 6 2 1 9 7 19 14 21 6 3
-1 6 -18 6 -16 0 -25 -3 -19 -7z"/>
<path d="M2644 1865 c-3 -8 -4 -20 -1 -27 3 -7 6 -3 6 9 1 14 9 23 24 26 l22
4 -23 2 c-12 0 -25 -6 -28 -14z"/>
<path d="M411 1854 c0 -11 3 -14 6 -6 3 7 2 16 -1 19 -3 4 -6 -2 -5 -13z"/>
<path d="M462 1850 c0 -14 2 -19 5 -12 2 6 2 18 0 25 -3 6 -5 1 -5 -13z"/>
<path d="M1681 1854 c0 -11 3 -14 6 -6 3 7 2 16 -1 19 -3 4 -6 -2 -5 -13z"/>
<path d="M303 1836 c1 -17 9 -31 17 -33 10 -3 11 -2 4 4 -7 4 -14 19 -17 33
-4 22 -5 21 -4 -4z"/>
<path d="M522 1840 c0 -14 2 -19 5 -12 2 6 2 18 0 25 -3 6 -5 1 -5 -13z"/>
<path d="M2132 1840 c0 -14 2 -19 5 -12 2 6 2 18 0 25 -3 6 -5 1 -5 -13z"/>
<path d="M587 1843 c-4 -3 -7 -16 -6 -27 0 -19 1 -19 10 3 10 24 8 36 -4 24z"/>
<path d="M666 1836 c21 -15 30 -14 19 3 -3 6 -14 11 -23 11 -13 0 -13 -2 4
-14z"/>
<path d="M711 1834 c0 -11 3 -14 6 -6 3 7 2 16 -1 19 -3 4 -6 -2 -5 -13z"/>
<path d="M731 1834 c0 -11 3 -14 6 -6 3 7 2 16 -1 19 -3 4 -6 -2 -5 -13z"/>
<path d="M861 1834 c0 -11 3 -14 6 -6 3 7 2 16 -1 19 -3 4 -6 -2 -5 -13z"/>
<path d="M927 1843 c-4 -3 -7 -15 -7 -25 0 -12 7 -18 23 -17 18 1 19 2 4 6
-13 3 -17 11 -14 24 5 20 4 23 -6 12z"/>
<path d="M2555 1841 c-3 -5 -2 -12 3 -15 5 -3 9 1 9 9 0 17 -3 19 -12 6z"/>
<path d="M796 1823 c-3 -7 1 -10 11 -6 8 3 19 0 24 -8 7 -11 9 -9 9 6 0 23
-36 30 -44 8z"/>
<path d="M1846 1825 c-3 -8 -1 -15 4 -15 6 0 10 7 10 15 0 8 -2 15 -4 15 -2 0
-6 -7 -10 -15z"/>
<path d="M2211 1823 c-1 -16 5 -23 17 -23 10 0 13 3 6 8 -6 4 -14 14 -17 22
-4 10 -6 8 -6 -7z"/>
<path d="M2400 1835 c0 -5 5 -17 10 -25 5 -8 10 -10 10 -5 0 6 -5 17 -10 25
-5 8 -10 11 -10 5z"/>
<path d="M390 1821 c0 -5 5 -13 10 -16 6 -3 10 -2 10 4 0 5 -4 13 -10 16 -5 3
-10 2 -10 -4z"/>
<path d="M895 1821 c-6 -5 -19 -11 -30 -14 -19 -4 -19 -5 1 -6 12 0 27 6 34
14 14 16 10 20 -5 6z"/>
<path d="M1540 1814 c-17 -9 -20 -14 -9 -14 9 0 22 7 29 15 15 18 13 18 -20
-1z"/>
<path d="M2030 1821 c0 -6 5 -13 10 -16 6 -3 10 1 10 9 0 9 -4 16 -10 16 -5 0
-10 -4 -10 -9z"/>
<path d="M2060 1818 c0 -19 34 -25 45 -8 4 6 -1 7 -10 3 -10 -3 -21 0 -26 8
-7 11 -9 11 -9 -3z"/>
<path d="M2310 1814 c-17 -9 -20 -14 -9 -14 9 0 22 7 29 15 15 18 13 18 -20
-1z"/>
<path d="M2591 1814 c0 -11 3 -14 6 -6 3 7 2 16 -1 19 -3 4 -6 -2 -5 -13z"/>
<path d="M648 1808 c5 -5 16 -8 23 -6 8 3 3 7 -10 11 -17 4 -21 3 -13 -5z"/>
<path d="M1710 1810 c0 -6 7 -10 15 -10 8 0 15 2 15 4 0 2 -7 6 -15 10 -8 3
-15 1 -15 -4z"/>
<path d="M2450 1810 c0 -6 7 -10 15 -10 8 0 15 2 15 4 0 2 -7 6 -15 10 -8 3
-15 1 -15 -4z"/>
<path d="M2630 1809 c0 -5 11 -9 25 -9 14 0 25 2 25 4 0 2 -11 6 -25 8 -14 3
-25 1 -25 -3z"/>
<path d="M528 1803 c6 -2 18 -2 25 0 6 3 1 5 -13 5 -14 0 -19 -2 -12 -5z"/>
<path d="M738 1803 c7 -3 16 -2 19 1 4 3 -2 6 -13 5 -11 0 -14 -3 -6 -6z"/>
<path d="M2138 1803 c6 -2 18 -2 25 0 6 3 1 5 -13 5 -14 0 -19 -2 -12 -5z"/>
</g>
</svg>
